<svg width="1596" height="900" viewBox="0 0 1596 900" fill="none" xmlns="http://www.w3.org/2000/svg">
<path d="M1149.09 900C1049.44 900 967.586 884.01 903.524 852.029C839.462 819.159 792.687 775.186 763.199 720.108C734.727 664.141 720.491 600.624 720.491 529.555V17.8611H937.08V506.902C937.08 581.524 953.858 639.711 987.414 681.464C1020.97 722.328 1079.44 742.761 1162.82 742.761C1242.14 742.761 1298.06 722.328 1330.6 681.464C1363.14 639.711 1379.41 585.966 1379.41 520.227V17.8611H1596V525.557C1596 613.505 1576.68 685.462 1538.04 741.428C1499.4 796.506 1446.52 836.927 1379.41 862.689C1313.32 887.563 1236.54 900 1149.09 900Z" fill="#27BD18"/>
<path d="M563.697 0L886.315 888.889V900H677.236L605.236 684.722H272.925L202.309 900H-4V888.889L318.618 0H563.697ZM325.541 526.389H552.62L437.696 183.333L325.541 526.389Z" fill="#BE69E7"/>
</svg>
