<svg width="34" height="32" viewBox="0 0 34 32" fill="none" xmlns="http://www.w3.org/2000/svg">
<g clip-path="url(#clip0_39_41)">
<path d="M28.0633 11.1431L28.0517 10.6641V1.60656L25.5159 4.11069C23.4407 1.60223 20.2835 0 16.7472 0C13.067 0 9.79757 1.73456 7.72968 4.41967L11.886 8.56708C12.2947 7.82426 12.8732 7.18688 13.571 6.70164C14.2967 6.14243 15.3248 5.68525 16.7471 5.68525C16.919 5.68525 17.0515 5.70492 17.149 5.74243C18.9112 5.87974 20.4388 6.84013 21.3379 8.23397L18.3945 11.1405L28.0617 11.1423" fill="#1C3AA9"/>
<path d="M16.6812 0.000366211L16.1961 0.0130875H7.02376L9.55955 2.51709C7.01912 4.56391 5.39655 7.6826 5.39655 11.1747C5.39655 14.8074 7.15312 18.0371 9.87233 20.078L14.0724 15.9737C13.3206 15.5719 12.6738 15.0027 12.1834 14.3112C11.6172 13.5946 11.1541 12.5794 11.1541 11.1749C11.1541 11.0052 11.174 10.8743 11.212 10.7781C11.3511 9.038 12.3236 7.52955 13.7352 6.64168L16.6772 9.54686L16.6791 0.000890801" fill="#4285F4"/>
<path d="M5.39697 11.1744L5.40853 11.6534V20.7107L7.94432 18.2067C10.0196 20.7152 13.1769 22.3174 16.7131 22.3174C20.392 22.3174 23.6627 20.5828 25.7295 17.8977L21.5731 13.7503C21.1662 14.4927 20.5897 15.1313 19.8895 15.6156C19.1638 16.1748 18.1357 16.632 16.7134 16.632C16.5415 16.632 16.409 16.6123 16.3115 16.5748C14.5493 16.4375 13.0217 15.4771 12.1226 14.0833L15.0647 11.1781C11.3379 11.1912 7.12832 11.2011 5.3975 11.1763" fill="#ABABAB"/>
<path d="M7.30641 26.645C7.03083 26.645 6.78366 26.6966 6.56505 26.7997C6.34809 26.8993 6.15767 27.0475 6.00897 27.2326C5.85929 27.4202 5.74401 27.648 5.66326 27.9154C5.58357 28.1806 5.54559 28.4774 5.54559 28.8072V29.7541C5.54559 30.085 5.58477 30.3829 5.66326 30.6481C5.74401 30.9133 5.85809 31.1397 6.00538 31.3275C6.15267 31.5153 6.33077 31.6595 6.54009 31.7602C6.7494 31.861 6.98448 31.9116 7.24585 31.9116C7.5144 31.9116 7.74961 31.8729 7.95162 31.7954C8.15615 31.7167 8.32708 31.6065 8.46494 31.461C8.6028 31.3132 8.70852 31.1348 8.78369 30.9259C8.85979 30.7171 8.90481 30.48 8.91916 30.2151H8.25828C8.24168 30.4193 8.21313 30.5954 8.17275 30.7397C8.13237 30.8839 8.07314 31.0013 7.99452 31.0937C7.91841 31.1853 7.81867 31.2534 7.69516 31.2979C7.57403 31.3402 7.42422 31.3613 7.24625 31.3613C7.05633 31.3613 6.89456 31.3202 6.76148 31.238C6.62841 31.1536 6.5203 31.0387 6.43716 30.8931C6.35641 30.7488 6.29691 30.5776 6.25892 30.3816C6.22333 30.1869 6.2054 29.9769 6.2054 29.7516V28.7977C6.2054 28.556 6.22665 28.3366 6.26955 28.1394C6.3147 27.9423 6.38244 27.7745 6.47275 27.636C6.56306 27.4976 6.67728 27.3908 6.81488 27.3158C6.95273 27.2371 7.11662 27.1996 7.30681 27.1996C7.46619 27.1996 7.60259 27.2232 7.71667 27.27C7.83089 27.3146 7.92572 27.385 8.00182 27.4798C8.07792 27.5737 8.13463 27.6934 8.17647 27.8388C8.2183 27.9842 8.24288 28.1579 8.25841 28.3597H8.91783C8.90455 28.0843 8.86205 27.8378 8.78594 27.6253C8.70984 27.4128 8.60399 27.2322 8.4672 27.0868C8.3304 26.9414 8.16664 26.8311 7.9718 26.7559C7.77923 26.6808 7.55716 26.6431 7.30509 26.6431L7.30641 26.645ZM23.4033 26.645C23.1277 26.645 22.8805 26.6966 22.6619 26.7997C22.445 26.8993 22.2545 27.0475 22.1058 27.2326C21.9562 27.4202 21.8409 27.648 21.7601 27.9154C21.6804 28.1806 21.6425 28.4774 21.6425 28.8072V29.7541C21.6425 30.085 21.6816 30.3829 21.7601 30.6481C21.8409 30.9133 21.955 31.1397 22.1023 31.3275C22.2495 31.5153 22.4276 31.6595 22.637 31.7602C22.8463 31.861 23.0814 31.9116 23.3427 31.9116C23.6113 31.9116 23.8465 31.8729 24.0485 31.7954C24.253 31.7167 24.424 31.6065 24.5618 31.461C24.6997 31.3132 24.8054 31.1348 24.8806 30.9259C24.9567 30.7171 25.0017 30.48 25.016 30.2151H24.3566C24.34 30.4193 24.3115 30.5954 24.2711 30.7397C24.2307 30.8839 24.1715 31.0013 24.0929 31.0937C24.0168 31.1853 23.917 31.2534 23.7935 31.2979C23.6724 31.3402 23.5226 31.3613 23.3446 31.3613C23.1547 31.3613 22.9929 31.3202 22.8598 31.238C22.7267 31.1536 22.6186 31.0387 22.5355 30.8931C22.4547 30.7488 22.3952 30.5776 22.3573 30.3816C22.3217 30.1869 22.3037 29.9769 22.3037 29.7516V28.7977C22.3037 28.556 22.325 28.3366 22.3679 28.1394C22.413 27.9423 22.4808 27.7745 22.5711 27.636C22.6614 27.4976 22.7756 27.3908 22.9132 27.3158C23.0511 27.2371 23.215 27.1996 23.4051 27.1996C23.5645 27.1996 23.7009 27.2232 23.815 27.27C23.9292 27.3146 24.0241 27.385 24.1002 27.4798C24.1763 27.5737 24.233 27.6934 24.2748 27.8388C24.3166 27.9842 24.3412 28.1579 24.3568 28.3597H25.0162C25.0029 28.0843 24.9604 27.8378 24.8843 27.6253C24.8082 27.4128 24.7023 27.2322 24.5655 27.0868C24.4287 26.9414 24.265 26.8311 24.0701 26.7559C23.8776 26.6808 23.6555 26.6431 23.4034 26.6431L23.4033 26.645ZM11.065 26.7154L9.39184 31.84H10.0619L10.4647 30.5025H12.2184L12.6282 31.84H13.2983L11.623 26.7154H11.065ZM14.0055 26.7154V31.84H14.6563V29.8338H15.6577C15.9074 29.8338 16.1282 29.7997 16.3207 29.7318C16.5132 29.6614 16.6747 29.5605 16.8054 29.4291C16.9385 29.2977 17.0382 29.1358 17.1048 28.9433C17.1739 28.7486 17.2081 28.528 17.2081 28.2817C17.2081 28.054 17.1736 27.8452 17.1048 27.6552C17.0384 27.4628 16.9397 27.2974 16.809 27.1589C16.6783 27.0182 16.5168 26.9091 16.3207 26.8316C16.1281 26.7529 15.9072 26.7154 15.6577 26.7154H14.0055ZM17.7088 26.7154V27.2715H19.0704V31.84H19.7212V27.2715H21.0865V26.7154H17.7088ZM25.8962 26.7154V31.84H26.547V29.4712H28.6344V31.84H29.2902V26.7154H28.6344V28.9187H26.5456V26.7154H25.8962ZM31.7665 26.7154L30.0948 31.84H30.7648L31.1676 30.5025H32.9213L33.3312 31.84H34L32.3247 26.7154H31.7665ZM14.6576 27.2715H15.659C15.8184 27.2715 15.9536 27.2997 16.0654 27.3559C16.1747 27.4084 16.2699 27.4856 16.3434 27.5812C16.4171 27.6751 16.4705 27.7842 16.5038 27.9086C16.5394 28.0305 16.5573 28.1574 16.5573 28.2889C16.5573 28.4332 16.5395 28.5682 16.5038 28.6902C16.4706 28.8098 16.4171 28.9132 16.3434 29.005C16.2721 29.0918 16.1794 29.1597 16.0654 29.2092C15.9538 29.2585 15.8184 29.2831 15.659 29.2831H14.6576V27.2715ZM11.3429 27.6164L12.0521 29.9463H10.6356L11.3429 27.6164ZM32.0443 27.6164L32.7536 29.9463H31.3371L32.0443 27.6164ZM1.34141 27.9613C1.17738 27.9613 1.03594 28.0023 0.917203 28.0846C0.800727 28.1667 0.704703 28.2781 0.625016 28.419L0.614391 28.0318H0V31.8401H0.630859V29.1158C0.690227 28.9538 0.774563 28.8273 0.883867 28.7322C0.99543 28.6383 1.13688 28.5915 1.30807 28.5915L1.45416 28.5985C1.50085 28.6014 1.5473 28.6073 1.59322 28.6161L1.58963 28.0107C1.58007 28.006 1.56466 28.0013 1.54315 27.9967C1.52228 27.9891 1.50083 27.9833 1.479 27.9791C1.45509 27.9744 1.43026 27.9709 1.40409 27.9686C1.38019 27.9639 1.35894 27.9616 1.33995 27.9616L1.34141 27.9613ZM3.46216 27.9613C3.28071 27.961 3.10072 27.9933 2.93091 28.0564C2.75825 28.1197 2.60777 28.2242 2.4747 28.3711C2.34401 28.5154 2.23829 28.702 2.15595 28.9343C2.0752 29.1642 2.03482 29.4457 2.03482 29.7825V30.2119C2.03482 30.5028 2.06935 30.7551 2.13815 30.9686C2.20695 31.1821 2.30549 31.3595 2.43392 31.5002C2.56461 31.6387 2.72266 31.7419 2.90806 31.8099C3.09347 31.878 3.30119 31.912 3.53188 31.912C3.69816 31.912 3.84665 31.8956 3.97747 31.8627C4.11055 31.8299 4.22822 31.7875 4.33035 31.736C4.43262 31.6819 4.52027 31.621 4.59412 31.5529C4.66796 31.4848 4.73091 31.4144 4.78298 31.3431L4.45493 30.9488C4.4026 31.0122 4.34682 31.0708 4.28759 31.1248C4.22822 31.1765 4.16274 31.2223 4.09155 31.2621C4.01689 31.3003 3.93801 31.3298 3.85648 31.35C3.77108 31.3723 3.67452 31.3817 3.56774 31.3817C3.27555 31.3817 3.04977 31.289 2.89412 31.1037C2.73966 30.9184 2.66249 30.6215 2.66249 30.2119V30.124H4.81405V29.7616C4.81405 29.4707 4.78909 29.2136 4.73915 28.9907C4.68921 28.7677 4.60966 28.5802 4.50035 28.4275C4.394 28.2774 4.24872 28.1583 4.07973 28.0826C3.90867 28.0029 3.70188 27.963 3.4595 27.963L3.46216 27.9613ZM3.46216 28.4964C3.60002 28.4964 3.7141 28.521 3.80428 28.5703C3.89362 28.6187 3.96763 28.6906 4.01811 28.7779C4.07283 28.8671 4.11201 28.9739 4.13578 29.0982C4.16195 29.2202 4.17855 29.3553 4.18572 29.5029V29.5874H2.66608C2.67564 29.3739 2.70167 29.1966 2.74577 29.0558C2.78986 28.9151 2.84445 28.8037 2.91311 28.7214C2.98443 28.637 3.06638 28.5772 3.15908 28.5454C3.25178 28.5137 3.35272 28.4961 3.46189 28.4961L3.46216 28.4964Z" fill="#A6A6A6"/>
</g>
<defs>
<clipPath id="clip0_39_41">
<rect width="34" height="32" fill="white"/>
</clipPath>
</defs>
</svg>
