<svg width="29" height="16" viewBox="0 0 29 16" fill="none" xmlns="http://www.w3.org/2000/svg">
<path d="M19.9996 0.9999C19.9058 1.09286 19.8314 1.20346 19.7807 1.32532C19.7299 1.44718 19.7038 1.57789 19.7038 1.7099C19.7038 1.84191 19.7299 1.97262 19.7807 2.09448C19.8314 2.21634 19.9058 2.32694 19.9996 2.4199L24.5996 7.0199H1.05957C0.794354 7.0199 0.54 7.12526 0.352463 7.31279C0.164927 7.50033 0.0595703 7.75468 0.0595703 8.0199C0.0595703 8.28512 0.164927 8.53947 0.352463 8.72701C0.54 8.91454 0.794354 9.0199 1.05957 9.0199H24.5796L19.9996 13.5899C19.8133 13.7773 19.7088 14.0307 19.7088 14.2949C19.7088 14.5591 19.8133 14.8125 19.9996 14.9999C20.1869 15.1862 20.4404 15.2907 20.7046 15.2907C20.9688 15.2907 21.2222 15.1862 21.4096 14.9999L27.7696 8.6399C27.8552 8.55777 27.9233 8.45918 27.9698 8.35006C28.0163 8.24093 28.0403 8.12353 28.0403 8.0049C28.0403 7.88627 28.0163 7.76887 27.9698 7.65974C27.9233 7.55062 27.8552 7.45203 27.7696 7.3699L21.4196 0.9999C21.3266 0.906171 21.216 0.831777 21.0941 0.781009C20.9723 0.73024 20.8416 0.704102 20.7096 0.704102C20.5776 0.704102 20.4469 0.73024 20.325 0.781009C20.2031 0.831777 20.0925 0.906171 19.9996 0.9999Z" fill="#9E9E9E"/>
</svg>
