<svg width="63" height="49" viewBox="0 0 63 49" fill="none" xmlns="http://www.w3.org/2000/svg">
<path d="M31.3567 5.10885C27.6118 5.10885 24.576 8.14468 24.576 11.8896C24.576 15.6344 27.6118 18.6703 31.3567 18.6703C35.1016 18.6703 38.1374 15.6344 38.1374 11.8896C38.1374 8.14468 35.1016 5.10885 31.3567 5.10885ZM20.0555 11.8896C20.0555 5.64809 25.1153 0.588379 31.3567 0.588379C37.5982 0.588379 42.6579 5.64809 42.6579 11.8896C42.6579 18.131 37.5982 23.1907 31.3567 23.1907C25.1153 23.1907 20.0555 18.131 20.0555 11.8896ZM13.2748 39.0124C13.2748 32.7709 18.3346 27.7112 24.576 27.7112H38.1374C44.3789 27.7112 49.4386 32.7709 49.4386 39.0124V45.7931C49.4386 47.0414 48.4267 48.0533 47.1784 48.0533C45.9301 48.0533 44.9181 47.0414 44.9181 45.7931V39.0124C44.9181 35.2675 41.8823 32.2317 38.1374 32.2317H24.576C20.8311 32.2317 17.7953 35.2675 17.7953 39.0124V45.7931C17.7953 47.0414 16.7834 48.0533 15.5351 48.0533C14.2868 48.0533 13.2748 47.0414 13.2748 45.7931V39.0124ZM46.2134 2.65773C46.6818 1.50064 47.9995 0.942328 49.1566 1.41071C53.2941 3.08551 56.2193 7.14321 56.2193 11.8896C56.2193 16.6359 53.2941 20.6936 49.1566 22.3684C47.9995 22.8368 46.6818 22.2785 46.2134 21.1214C45.7451 19.9643 46.3034 18.6466 47.4605 18.1782C49.9496 17.1706 51.6989 14.7317 51.6989 11.8896C51.6989 9.04745 49.9496 6.60848 47.4605 5.6009C46.3034 5.13252 45.7451 3.81482 46.2134 2.65773ZM52.2491 29.7077C52.6224 28.5166 53.8907 27.8536 55.0818 28.2269C59.6682 29.6643 63 33.9463 63 39.0124V45.7931C63 47.0414 61.9881 48.0533 60.7398 48.0533C59.4915 48.0533 58.4795 47.0414 58.4795 45.7931V39.0124C58.4795 35.9782 56.485 33.4039 53.7299 32.5405C52.5388 32.1672 51.8758 30.8989 52.2491 29.7077Z" fill="white"/>
<path d="M13.8434 1.411C15.0005 0.942618 16.3182 1.50093 16.7866 2.65802C17.255 3.81511 16.6967 5.13281 15.5396 5.60119C13.0504 6.60877 11.3011 9.04774 11.3011 11.8899C11.3011 14.732 13.0504 17.1709 15.5396 18.1785C16.6967 18.6469 17.255 19.9646 16.7866 21.1217C16.3182 22.2788 15.0005 22.8371 13.8434 22.3687C9.70594 20.6939 6.78066 16.6362 6.78066 11.8899C6.78066 7.1435 9.70594 3.0858 13.8434 1.411Z" fill="white"/>
<path d="M7.91818 28.2272C9.10935 27.8539 10.3776 28.5169 10.7509 29.708C11.1243 30.8992 10.4613 32.1675 9.2701 32.5408C6.51504 33.4042 4.52048 35.9785 4.52048 39.0127V45.7934C4.52048 47.0417 3.50853 48.0536 2.26024 48.0536C1.01195 48.0536 0 47.0417 0 45.7934V39.0127C0 33.9466 3.33182 29.6646 7.91818 28.2272Z" fill="white"/>
<path d="M31.3567 5.10885C27.6118 5.10885 24.576 8.14468 24.576 11.8896C24.576 15.6344 27.6118 18.6703 31.3567 18.6703C35.1016 18.6703 38.1374 15.6344 38.1374 11.8896C38.1374 8.14468 35.1016 5.10885 31.3567 5.10885ZM20.0555 11.8896C20.0555 5.64809 25.1153 0.588379 31.3567 0.588379C37.5982 0.588379 42.6579 5.64809 42.6579 11.8896C42.6579 18.131 37.5982 23.1907 31.3567 23.1907C25.1153 23.1907 20.0555 18.131 20.0555 11.8896ZM13.2748 39.0124C13.2748 32.7709 18.3346 27.7112 24.576 27.7112H38.1374C44.3789 27.7112 49.4386 32.7709 49.4386 39.0124V45.7931C49.4386 47.0414 48.4267 48.0533 47.1784 48.0533C45.9301 48.0533 44.9181 47.0414 44.9181 45.7931V39.0124C44.9181 35.2675 41.8823 32.2317 38.1374 32.2317H24.576C20.8311 32.2317 17.7953 35.2675 17.7953 39.0124V45.7931C17.7953 47.0414 16.7834 48.0533 15.5351 48.0533C14.2868 48.0533 13.2748 47.0414 13.2748 45.7931V39.0124ZM46.2134 2.65773C46.6818 1.50064 47.9995 0.942328 49.1566 1.41071C53.2941 3.08551 56.2193 7.14321 56.2193 11.8896C56.2193 16.6359 53.2941 20.6936 49.1566 22.3684C47.9995 22.8368 46.6818 22.2785 46.2134 21.1214C45.7451 19.9643 46.3034 18.6466 47.4605 18.1782C49.9496 17.1706 51.6989 14.7317 51.6989 11.8896C51.6989 9.04745 49.9496 6.60848 47.4605 5.6009C46.3034 5.13252 45.7451 3.81482 46.2134 2.65773ZM52.2491 29.7077C52.6224 28.5166 53.8907 27.8536 55.0818 28.2269C59.6682 29.6643 63 33.9463 63 39.0124V45.7931C63 47.0414 61.9881 48.0533 60.7398 48.0533C59.4915 48.0533 58.4795 47.0414 58.4795 45.7931V39.0124C58.4795 35.9782 56.485 33.4039 53.7299 32.5405C52.5388 32.1672 51.8758 30.8989 52.2491 29.7077Z" stroke="white" stroke-width="0.4" stroke-linecap="round" stroke-linejoin="round"/>
<path d="M13.8434 1.411C15.0005 0.942618 16.3182 1.50093 16.7866 2.65802C17.255 3.81511 16.6967 5.13281 15.5396 5.60119C13.0504 6.60877 11.3011 9.04774 11.3011 11.8899C11.3011 14.732 13.0504 17.1709 15.5396 18.1785C16.6967 18.6469 17.255 19.9646 16.7866 21.1217C16.3182 22.2788 15.0005 22.8371 13.8434 22.3687C9.70594 20.6939 6.78066 16.6362 6.78066 11.8899C6.78066 7.1435 9.70594 3.0858 13.8434 1.411Z" stroke="white" stroke-width="0.4" stroke-linecap="round" stroke-linejoin="round"/>
<path d="M7.91818 28.2272C9.10935 27.8539 10.3776 28.5169 10.7509 29.708C11.1243 30.8992 10.4613 32.1675 9.2701 32.5408C6.51504 33.4042 4.52048 35.9785 4.52048 39.0127V45.7934C4.52048 47.0417 3.50853 48.0536 2.26024 48.0536C1.01195 48.0536 0 47.0417 0 45.7934V39.0127C0 33.9466 3.33182 29.6646 7.91818 28.2272Z" stroke="white" stroke-width="0.4" stroke-linecap="round" stroke-linejoin="round"/>
</svg>
