<?xml version="1.0" encoding="UTF-8"?> <!-- Creator: CorelDRAW 2021.5 --> <svg xmlns="http://www.w3.org/2000/svg" xmlns:xlink="http://www.w3.org/1999/xlink" xmlns:xodm="http://www.corel.com/coreldraw/odm/2003" xml:space="preserve" width="129.22mm" height="31.1444mm" style="shape-rendering:geometricPrecision; text-rendering:geometricPrecision; image-rendering:optimizeQuality; fill-rule:evenodd; clip-rule:evenodd" viewBox="0 0 14304.51 3447.64"> <defs> <style type="text/css"> <![CDATA[ .fil2 {fill:#0065FF} .fil0 {fill:black;fill-rule:nonzero} .fil1 {fill:#0065FF;fill-rule:nonzero} ]]> </style> </defs> <g id="Слой_x0020_1"> <metadata id="CorelCorpID_0Corel-Layer"></metadata> <path class="fil0" d="M4745.25 363.91l0 550.76c0,63.64 -2,126.28 -5.51,187.42 -3.01,61.14 -6.52,108.75 -9.52,142.82l15.03 0c44.1,-70.16 105.24,-129.79 183.91,-178.4 79.18,-48.11 179.91,-72.66 303.19,-72.66 192.94,0 348.29,70.66 465.56,212.49 117.26,141.32 176.4,350.29 176.4,627.43 0,183.91 -27.07,338.77 -81.19,464.05 -53.62,125.29 -129.3,220 -226.51,284.15 -97.72,64.15 -211.99,96.22 -342.79,96.22 -123.27,0 -223,-23.05 -298.68,-68.66 -76.17,-45.1 -135.31,-98.22 -178.4,-159.36l-25.06 0 -63.14 198.45 -258.59 0 0 -2284.71 345.29 0zm396.4 910.57c-98.22,0 -175.4,19.55 -233.03,58.64 -57.13,39.09 -98.22,97.72 -123.78,175.4 -25.56,77.68 -38.59,176.4 -39.59,295.68l0 31.06c0,180.91 28.56,319.73 85.69,415.45 57.13,95.72 161.87,143.83 313.72,143.83 120.27,0 212.49,-48.62 277.12,-145.83 64.65,-97.72 97.23,-237.04 97.23,-419.46 0,-183.91 -32.07,-322.23 -96.22,-415.44 -64.15,-92.71 -157.86,-139.33 -281.14,-139.33z"></path> <path id="_1" class="fil0" d="M6919.2 992.35c144.83,0 269.12,30.07 372.85,89.7 103.74,59.64 183.91,144.33 239.54,254.09 55.63,109.75 83.69,240.55 83.69,393.39l0 184.92 -1084.97 0c4.01,157.87 46.11,279.14 126.79,364.33 80.68,85.19 193.93,127.79 339.77,127.79 103.74,0 197.45,-10.02 280.14,-30.07 82.68,-20.05 167.87,-50.11 256.08,-89.2l0 280.63c-81.19,38.09 -163.88,66.15 -248.06,83.7 -84.2,17.53 -184.92,26.56 -302.69,26.56 -159.36,0 -299.68,-31.07 -420.46,-93.21 -120.77,-62.15 -215.49,-155.35 -283.64,-278.64 -67.66,-123.28 -101.73,-276.13 -101.73,-459.54 0,-181.92 30.56,-336.27 92.21,-463.56 61.64,-127.29 148.34,-224.51 260.09,-290.66 111.76,-66.65 241.56,-100.23 390.39,-100.23zm0 260.09c-108.75,0 -196.45,35.08 -263.6,105.75 -66.65,70.16 -106.25,173.39 -118.27,309.7l740.19 0c-1.01,-81.19 -14.53,-153.35 -40.59,-215.99 -25.56,-62.64 -64.65,-111.25 -117.27,-146.83 -52.12,-35.08 -119.27,-52.63 -200.45,-52.63z"></path> <path id="_2" class="fil0" d="M8828.04 992.35c27.07,0 57.13,1.51 89.21,4.51 32.57,3.01 60.63,7.02 83.69,12.03l-32.07 322.73c-20.56,-6.01 -45.61,-10.02 -75.67,-13.03 -29.57,-3 -56.63,-4.51 -80.19,-4.51 -61.64,0 -120.27,10.02 -175.9,30.07 -55.63,20.05 -105.24,50.61 -148.34,91.2 -43.09,40.59 -76.67,91.22 -101.23,151.85 -24.55,60.64 -36.57,131.3 -36.57,211.49l0 849.93 -346.8 0 0 -1625.2 270.12 0 47.11 286.14 16.03 0c32.58,-57.63 72.67,-110.75 120.27,-158.35 48.11,-48.11 103.24,-86.7 165.38,-115.27 62.14,-29.06 130.29,-43.59 204.96,-43.59z"></path> <path id="_3" class="fil0" d="M10394.62 2184.56c0,106.75 -26.06,196.95 -77.68,270.12 -52.12,73.67 -127.79,129.3 -227.02,166.88 -99.23,37.59 -221,56.63 -364.83,56.63 -113.76,0 -210.98,-8.52 -293.17,-24.55 -81.68,-16.04 -158.35,-40.59 -231.02,-74.17l0 -297.68c77.17,36.08 164.37,67.15 260.58,93.71 96.22,26.57 187.93,39.6 273.62,39.6 113.76,0 195.45,-17.55 245.56,-53.62 49.62,-35.58 74.67,-83.19 74.67,-142.82 0,-35.59 -10.02,-67.16 -30.07,-94.72 -20.05,-28.06 -57.13,-57.12 -111.75,-86.69 -54.13,-30.08 -133.81,-66.15 -238.54,-108.25 -102.74,-41.09 -189.44,-82.18 -259.6,-123.28 -70.66,-41.09 -123.77,-90.71 -160.36,-148.83 -36.09,-58.13 -54.12,-132.81 -54.12,-224.01 0,-143.83 57.12,-253.08 170.89,-328.24 114.26,-74.68 265.1,-112.26 453.03,-112.26 99.73,0 193.94,10.02 282.64,30.07 88.7,20.05 175.4,49.62 260.6,87.71l-108.74 259.59c-73.17,-32.07 -146.84,-58.64 -221.01,-79.68 -73.67,-21.05 -148.83,-31.57 -225.02,-31.57 -89.2,0 -156.85,13.53 -203.45,41.09 -46.62,27.07 -69.66,66.15 -69.66,117.26 0,38.09 11.03,70.66 33.57,96.73 22.55,26.56 61.64,53.11 116.76,79.68 55.13,26.06 132.31,59.14 231.53,98.22 96.73,37.08 180.42,76.17 251.57,116.76 71.17,40.59 125.29,90.21 163.88,148.83 38.08,58.64 57.13,134.81 57.13,227.52z"></path> <path id="_4" class="fil1" d="M10716.34 2466.71c0,-80.19 20.56,-136.81 62.15,-169.89 41.59,-32.58 92.21,-49.12 151.85,-49.12 59.63,0 111.25,16.54 153.35,49.12 42.6,33.08 64.15,89.7 64.15,169.89 0,78.18 -21.55,134.81 -64.15,169.38 -42.1,34.58 -93.72,52.12 -153.35,52.12 -59.63,0 -110.26,-17.53 -151.85,-52.12 -41.59,-34.57 -62.15,-91.2 -62.15,-169.38z"></path> <path id="_5" class="fil1" d="M12413.7 992.35c27.07,0 57.13,1.51 89.21,4.51 32.57,3.01 60.63,7.02 83.69,12.03l-32.07 322.73c-20.56,-6.01 -45.61,-10.02 -75.67,-13.03 -29.57,-3 -56.63,-4.51 -80.19,-4.51 -61.64,0 -120.27,10.02 -175.9,30.07 -55.63,20.05 -105.24,50.61 -148.34,91.2 -43.09,40.59 -76.67,91.22 -101.23,151.85 -24.55,60.64 -36.57,131.3 -36.57,211.49l0 849.93 -346.8 0 0 -1625.2 270.12 0 47.11 286.14 16.03 0c32.58,-57.63 72.67,-110.75 120.27,-158.35 48.11,-48.11 103.24,-86.7 165.38,-115.27 62.14,-29.06 130.29,-43.59 204.96,-43.59z"></path> <path id="_6" class="fil1" d="M14304.51 1023.42l0 1625.2 -271.62 0 -46.6 -218.99 -19.04 0c-34.58,56.12 -78.19,102.23 -130.8,138.82 -53.12,37.08 -111.75,64.14 -176.4,82.18 -64.65,18.54 -132.31,27.56 -203.97,27.56 -122.28,0 -227.01,-21.04 -313.71,-62.64 -86.2,-41.59 -152.85,-105.74 -198.45,-192.94 -46.11,-87.2 -69.16,-199.95 -69.16,-337.77l0 -1061.41 346.29 0 0 996.76c0,126.3 25.56,221.01 77.18,283.65 51.62,62.64 131.3,93.71 240.05,93.71 104.73,0 187.92,-21.54 249.57,-64.65 61.64,-43.09 105.74,-106.74 131.3,-190.93 26.06,-84.19 39.09,-187.42 39.09,-309.7l0 -808.84 346.29 0z"></path> <g id="_3059719755296"> <path class="fil0" d="M4057.41 1817.33c0,135.31 -17.55,255.08 -52.63,359.81 -35.58,104.74 -86.69,192.95 -154.35,265.11 -67.66,71.66 -148.83,126.78 -243.56,164.37 -95.21,37.59 -201.96,56.63 -321.73,56.63 -38.21,0 -75.36,-2.25 -111.44,-6.72 56.05,-86.94 104.42,-179.3 144.32,-276.03 83.67,-3.8 153.31,-25.68 208.18,-66.05 60.63,-44.6 105.24,-108.74 133.3,-192.94 28.56,-84.19 42.6,-185.92 42.6,-304.19 0,-118.27 -14.04,-219.01 -42.6,-301.69 -28.06,-82.69 -72.67,-145.83 -133.3,-189.44 -38.88,-27.95 -85.37,-46.84 -139.23,-56.8 -27.62,-101.28 -64.11,-198.9 -108.82,-291.85 5.81,-0.09 11.65,-0.14 17.51,-0.14 149.84,0 281.64,33.08 396.4,98.72 114.26,65.15 203.97,160.87 268.62,286.16 64.64,125.29 96.72,277.13 96.72,455.04z"></path> <path class="fil2" d="M1723.82 0c684.7,0 1276.15,399.21 1554.34,977.56 -152.39,2.34 -283.89,35.35 -394.93,98.58 -115.76,65.15 -204.46,160.37 -266.61,285.15 -62.14,124.79 -93.21,277.13 -93.21,456.04 0,135.31 18.54,255.08 55.63,359.81 37.08,104.74 89.7,192.95 157.86,265.11 68.16,71.66 148.34,126.78 241.56,164.37 61.19,24.69 126.27,41.37 195.25,49.91 -306.81,475.94 -841.52,791.11 -1449.89,791.11 -952.04,0 -1723.82,-771.78 -1723.82,-1723.82 0,-952.04 771.78,-1723.82 1723.82,-1723.82zm1663.16 1269.4c39.48,144.78 60.66,297.11 60.66,454.42 0,232.54 -46.13,454.28 -129.62,656.69 -8.8,0.4 -17.74,0.61 -26.86,0.61 -95.72,0 -174.41,-22.05 -235.04,-66.66 -60.64,-44.6 -105.24,-108.74 -134.31,-192.94 -28.56,-84.19 -43.09,-185.92 -43.09,-304.19 0,-178.91 32.57,-316.72 98.22,-412.44 65.64,-96.22 169.89,-143.83 312.71,-143.83 34.72,0 67.17,2.78 97.32,8.35zm-2131.21 1840.24c0,0 345.15,143.07 593.44,-13.15 248.3,-156.22 307.66,-321.07 307.66,-525.28l0 -2078.31c0,0 -11.69,-22.2 -42.21,-30.52 -30.52,-8.32 -656.12,-8.32 -656.12,-8.32l-36.07 23.58 0 325.99 29.14 26.36 305.16 0 0 1755.23c0,0 -7.76,172.41 -168.89,201.13 -161.13,28.72 -303.11,-23.93 -303.11,-23.93l-30.97 32.37 1.97 314.87z"></path> </g> </g> </svg> 