<svg width="110" height="21" viewBox="0 0 110 21" fill="none" xmlns="http://www.w3.org/2000/svg">
<path d="M5.47345 20.355C3.28407 20.355 1.53848 19.6647 0.23669 18.284L1.83434 15.6508C2.84028 16.7357 3.96455 17.2781 5.20717 17.2781C6.27228 17.2781 7.11055 16.9526 7.722 16.3017C8.35317 15.6508 8.66876 14.783 8.66876 13.6981V0.265999H12.1303V13.7573C12.1303 15.927 11.5189 17.5739 10.296 18.6982C9.0731 19.8028 7.46559 20.355 5.47345 20.355ZM20.9306 20.355C18.7215 20.355 16.9463 19.6351 15.6051 18.1952C14.2639 16.7357 13.5932 14.9506 13.5932 12.8401C13.5932 10.7297 14.2639 8.95448 15.6051 7.51462C16.9463 6.07476 18.7215 5.35483 20.9306 5.35483C23.1595 5.35483 24.9445 6.07476 26.2857 7.51462C27.627 8.95448 28.2976 10.7297 28.2976 12.8401C28.2976 14.9703 27.627 16.7554 26.2857 18.1952C24.9445 19.6351 23.1595 20.355 20.9306 20.355ZM20.9306 17.6035C22.2127 17.6035 23.2186 17.1499 23.9484 16.2426C24.6979 15.3155 25.0727 14.1814 25.0727 12.8401C25.0727 11.5186 24.6979 10.4042 23.9484 9.4969C23.2186 8.56986 22.2127 8.10634 20.9306 8.10634C19.6683 8.10634 18.6623 8.56986 17.9128 9.4969C17.183 10.4042 16.8181 11.5186 16.8181 12.8401C16.8181 14.1814 17.183 15.3155 17.9128 16.2426C18.6623 17.1499 19.6683 17.6035 20.9306 17.6035ZM32.7723 15.71C33.1076 16.2426 33.6204 16.6962 34.3108 17.071C35.0208 17.426 35.7309 17.6035 36.441 17.6035C37.6639 17.6035 38.6402 17.1696 39.37 16.3017C40.1195 15.4141 40.4943 14.2701 40.4943 12.8697C40.4943 11.4693 40.1195 10.3253 39.37 9.43772C38.6402 8.55014 37.6639 8.10634 36.441 8.10634C35.7309 8.10634 35.0307 8.29372 34.3403 8.66848C33.65 9.04324 33.1273 9.50676 32.7723 10.059V15.71ZM32.7723 20H29.6657V0.265999H32.7723V7.69214C33.936 6.13393 35.4646 5.35483 37.3581 5.35483C39.2122 5.35483 40.731 6.04517 41.9144 7.42586C43.0979 8.78683 43.6896 10.6014 43.6896 12.8697C43.6896 15.1774 43.0979 17.0019 41.9144 18.3432C40.731 19.6844 39.2122 20.355 37.3581 20.355C35.4843 20.355 33.9557 19.5858 32.7723 18.0473V20ZM51.6795 20.355C49.5098 20.355 47.7149 19.6647 46.2948 18.284C44.8944 16.8836 44.1942 15.069 44.1942 12.8401C44.1942 10.7494 44.8746 8.98407 46.2356 7.54421C47.6163 6.08462 49.352 5.35483 51.4428 5.35483C53.5533 5.35483 55.2495 6.08462 56.5316 7.54421C57.8334 9.00379 58.4843 10.8677 58.4843 13.136V13.8757H47.4486C47.567 14.9999 48.0305 15.9368 48.8392 16.6863C49.6479 17.4359 50.7031 17.8106 52.0049 17.8106C52.7347 17.8106 53.4645 17.6726 54.1943 17.3964C54.9438 17.1203 55.5651 16.7357 56.0582 16.2426L57.4784 18.284C56.0385 19.6647 54.1055 20.355 51.6795 20.355ZM55.4665 11.6863C55.4271 10.7001 55.0622 9.82234 54.3718 9.0531C53.7012 8.28386 52.7249 7.89924 51.4428 7.89924C50.2199 7.89924 49.2633 8.28386 48.5729 9.0531C47.8826 9.80262 47.498 10.6803 47.4191 11.6863H55.4665ZM62.882 20H59.7755V5.70986H62.882V7.81048C63.4343 7.10041 64.1246 6.51855 64.953 6.0649C65.7815 5.61124 66.6395 5.38441 67.527 5.38441V8.46138C67.2509 8.40221 66.9255 8.37262 66.5507 8.37262C65.8998 8.37262 65.1996 8.56986 64.4501 8.96434C63.7203 9.3391 63.1976 9.77303 62.882 10.2661V20ZM74.9141 20.355C72.35 20.355 70.3085 19.6154 68.7898 18.1361L70.2099 15.8875C70.7425 16.4398 71.4624 16.9132 72.3697 17.3077C73.277 17.7021 74.1745 17.8994 75.0621 17.8994C75.9694 17.8994 76.6597 17.7219 77.1331 17.3668C77.6262 17.0118 77.8727 16.5483 77.8727 15.9763C77.8727 15.4634 77.5769 15.069 76.9852 14.7928C76.3934 14.497 75.6735 14.2701 74.8254 14.1123C73.9772 13.9348 73.1291 13.7277 72.281 13.491C71.4328 13.2346 70.7129 12.7908 70.1212 12.1597C69.5294 11.5285 69.2336 10.7099 69.2336 9.704C69.2336 8.4811 69.7365 7.45545 70.7425 6.62703C71.7484 5.7789 73.1192 5.35483 74.855 5.35483C77.0443 5.35483 78.8984 6.02545 80.4172 7.36669L79.1154 9.55607C78.6617 9.04324 78.0601 8.62903 77.3106 8.31345C76.5611 7.99786 75.7524 7.84007 74.8845 7.84007C74.0758 7.84007 73.425 8.00772 72.9318 8.34303C72.4585 8.65862 72.2218 9.07283 72.2218 9.58565C72.2218 9.98014 72.4289 10.3056 72.8431 10.562C73.277 10.7987 73.8096 10.9762 74.4407 11.0946C75.0916 11.2129 75.7918 11.3806 76.5414 11.5975C77.2909 11.7948 77.9812 12.0314 78.6124 12.3076C79.2633 12.5837 79.7958 13.0374 80.2101 13.6686C80.644 14.28 80.861 15.0295 80.861 15.9171C80.861 17.2189 80.3383 18.284 79.2929 19.1124C78.2475 19.9408 76.7879 20.355 74.9141 20.355Z" fill="#F9F9F9"/>
<path d="M85.5557 19.7337C85.1415 20.1282 84.6582 20.3254 84.106 20.3254C83.5537 20.3254 83.0704 20.1282 82.6562 19.7337C82.242 19.3195 82.0349 18.8264 82.0349 18.2544C82.0349 17.6824 82.242 17.1992 82.6562 16.8047C83.0704 16.3905 83.5537 16.1834 84.106 16.1834C84.6582 16.1834 85.1415 16.3905 85.5557 16.8047C85.9699 17.1992 86.177 17.6824 86.177 18.2544C86.177 18.8264 85.9699 19.3195 85.5557 19.7337ZM90.2042 20H87.0976V5.70986H90.2042V7.81048C90.7565 7.10041 91.4468 6.51855 92.2752 6.0649C93.1036 5.61124 93.9616 5.38441 94.8492 5.38441V8.46138C94.5731 8.40221 94.2476 8.37262 93.8729 8.37262C93.222 8.37262 92.5218 8.56986 91.7723 8.96434C91.0425 9.3391 90.5198 9.77303 90.2042 10.2661V20ZM109.515 20H106.408V18.1065C105.067 19.6055 103.38 20.355 101.349 20.355C98.2915 20.355 96.7628 18.8461 96.7628 15.8283V5.70986H99.8694V14.7041C99.8694 15.7494 100.116 16.499 100.609 16.9526C101.102 17.3866 101.812 17.6035 102.739 17.6035C103.489 17.6035 104.189 17.426 104.84 17.071C105.491 16.7159 106.013 16.2721 106.408 15.7396V5.70986H109.515V20Z" fill="#0E65F3"/>
</svg>
