<svg width="25" height="20" viewBox="0 0 25 20" fill="none" xmlns="http://www.w3.org/2000/svg">
<path fill-rule="evenodd" clip-rule="evenodd" d="M0.0135634 1.39624C0.0135634 0.625116 0.63539 0 1.40245 0H23.6111C24.3782 0 25 0.625116 25 1.39624V17.2075C25 18.7498 23.7563 20 22.2222 20H2.77778C1.24365 20 0 18.7498 0 17.2075V1.84892C0 1.78243 0.004623 1.71703 0.0135634 1.65302V1.39624ZM2.77778 4.50112V17.2075H22.2222V4.5016L15.4465 11.3132C13.8193 12.9489 11.1811 12.9489 9.55396 11.3132L2.77778 4.50112ZM4.96156 2.74731H20.0389L13.4823 9.33858C12.9399 9.88384 12.0605 9.88384 11.5181 9.33858L4.96156 2.74731Z" fill="white"/>
</svg>
