<svg width="24" height="26" viewBox="0 0 24 26" fill="none" xmlns="http://www.w3.org/2000/svg">
<path d="M9.29801 0.00011839C9.73718 0.00720172 10.1282 0.283452 10.2798 0.697119L15.3528 14.5323L13.7053 16.2096L13.0423 14.4034H5.10043L3.2616 19.1535C3.15978 19.4165 2.95765 19.6282 2.69968 19.7422C2.4417 19.8562 2.14902 19.863 1.88601 19.7612C1.62301 19.6594 1.41122 19.4573 1.29725 19.1993C1.18327 18.9413 1.17644 18.6486 1.27826 18.3856L3.3806 12.9555L3.38485 12.9442L8.29643 0.665952C8.37656 0.46677 8.51515 0.296535 8.69394 0.177677C8.87274 0.0588192 9.08334 -0.00308585 9.29801 0.00011839V0.00011839ZM9.23993 4.03195L5.94051 12.277H12.2631L9.23993 4.03195V4.03195Z" fill="white"/>
<path d="M22.5356 13.5389L22.3529 13.3887L22.3486 13.3859C21.7317 12.9259 20.97 12.7031 20.2025 12.7582C19.4349 12.8134 18.7128 13.1428 18.168 13.6862L12.7805 19.1687C12.4461 19.5073 12.2025 19.9181 12.0679 20.3658L11.2363 23.1311C10.4832 23.249 9.71602 23.2457 8.96396 23.1212C8.95613 23.1199 8.94869 23.1169 8.94222 23.1123C8.93574 23.1077 8.93039 23.1017 8.92657 23.0947C8.92275 23.0878 8.92056 23.08 8.92016 23.0721C8.91977 23.0642 8.92118 23.0563 8.92429 23.049L8.97671 22.9356C9.07021 22.7415 9.23171 22.3959 9.28554 22.0403C9.31387 21.842 9.32379 21.5671 9.21612 21.2753C9.105 20.9726 8.89416 20.7168 8.61829 20.55C8.15929 20.2666 7.58837 20.2454 7.09821 20.2737C6.60741 20.3097 6.1195 20.3778 5.63762 20.4777C4.98312 20.6052 4.36121 20.8985 3.74071 21.1903C2.92471 21.5756 2.11154 21.9581 1.23179 21.9581C0.915874 21.9581 0.612707 21.9071 0.327957 21.8108C0.153707 21.7527 -0.0375432 21.8944 0.00637342 22.0729C0.0871234 22.3959 0.235874 22.8336 0.561707 23.1708C0.759346 23.3773 1.01089 23.5243 1.28782 23.5952C1.56475 23.6661 1.856 23.6579 2.12854 23.5717C4.18837 22.9682 5.55687 22.6395 6.44654 22.4908C6.63354 22.4596 6.77237 22.6466 6.71571 22.828C6.62646 23.1113 6.49896 23.6468 6.76387 24.188C7.05004 24.7773 7.61387 25.0238 8.10121 25.123C9.72046 25.4573 11.1187 25.4134 12.8272 24.9643C12.9026 24.9519 12.9769 24.9339 13.0496 24.9105L13.2154 24.858C13.4576 24.7872 13.707 24.7093 13.9648 24.6229C14.0034 24.6104 14.0412 24.5957 14.0781 24.579L16.043 23.9429C16.5219 23.787 16.954 23.5235 17.2996 23.1708L22.6759 17.7025C23.7894 16.5677 23.7851 14.8195 22.7014 13.699L22.5356 13.5389V13.5389ZM14.2127 20.9495C14.2493 20.8283 14.3149 20.7179 14.404 20.6279L19.7915 15.1454C19.9521 14.9858 20.1671 14.8929 20.3933 14.8853C20.6196 14.8777 20.8403 14.9559 21.0113 15.1043C21.3215 15.3791 21.3655 15.8211 21.1331 16.1441L21.0481 16.2461L15.6761 21.7102C15.5804 21.8067 15.4628 21.8786 15.3333 21.9199L13.7693 22.4256L14.2127 20.9495V20.9495Z" fill="white"/>
</svg>
