<svg width="24" height="26" viewBox="0 0 24 26" fill="none" xmlns="http://www.w3.org/2000/svg">
<path d="M9.52946 0.249874C9.96863 0.256958 10.3596 0.533208 10.5112 0.946874L15.5843 14.782L13.9367 16.4594L13.2737 14.6531H5.33188L3.49304 19.4032C3.39122 19.6662 3.18909 19.878 2.93112 19.992C2.67315 20.106 2.38047 20.1128 2.11746 20.011C1.85445 19.9091 1.64267 19.707 1.52869 19.449C1.41472 19.1911 1.40789 18.8984 1.50971 18.6354L3.61204 13.2053L3.61629 13.194L8.52787 0.915708C8.608 0.716526 8.74659 0.546291 8.92539 0.427433C9.10418 0.308575 9.31479 0.24667 9.52946 0.249874ZM9.47137 4.28171L6.17196 12.5267H12.4945L9.47137 4.28171Z" fill="#0E65F3"/>
<path d="M22.7671 13.7886L22.5843 13.6385L22.5801 13.6356C21.9632 13.1756 21.2014 12.9529 20.4339 13.008C19.6664 13.0631 18.9443 13.3925 18.3995 13.936L13.0119 19.4185C12.6776 19.7571 12.4339 20.1679 12.2993 20.6155L11.4677 23.3809C10.7146 23.4988 9.94747 23.4955 9.1954 23.371C9.18757 23.3697 9.18014 23.3666 9.17366 23.362C9.16718 23.3574 9.16183 23.3514 9.15802 23.3445C9.1542 23.3375 9.15201 23.3298 9.15161 23.3219C9.15122 23.3139 9.15263 23.306 9.15574 23.2987L9.20815 23.1854C9.30165 22.9913 9.46315 22.6456 9.51699 22.2901C9.54532 22.0917 9.55524 21.8169 9.44757 21.5251C9.33645 21.2224 9.1256 20.9666 8.84974 20.7997C8.39074 20.5164 7.81982 20.4951 7.32965 20.5235C6.83885 20.5594 6.35094 20.6276 5.86907 20.7275C5.21457 20.855 4.59265 21.1482 3.97215 21.4401C3.15615 21.8254 2.34299 22.2079 1.46324 22.2079C1.14732 22.2079 0.844152 22.1569 0.559402 22.0606C0.385152 22.0025 0.193902 22.1441 0.237819 22.3226C0.318569 22.6456 0.467319 23.0834 0.793152 23.4206C0.990791 23.6271 1.24233 23.7741 1.51927 23.845C1.7962 23.9158 2.08744 23.9077 2.35999 23.8215C4.41982 23.218 5.78832 22.8893 6.67799 22.7406C6.86499 22.7094 7.00382 22.8964 6.94715 23.0777C6.8579 23.3611 6.7304 23.8966 6.99532 24.4377C7.28149 25.0271 7.84532 25.2736 8.33265 25.3727C9.9519 25.7071 11.3502 25.6631 13.0587 25.2141C13.134 25.2017 13.2084 25.1837 13.2811 25.1602L13.4468 25.1078C13.6891 25.037 13.9384 24.9591 14.1962 24.8726C14.2348 24.8602 14.2727 24.8455 14.3096 24.8287L16.2745 24.1926C16.7533 24.0368 17.1854 23.7733 17.5311 23.4206L22.9073 17.9522C24.0208 16.8175 24.0166 15.0693 22.9328 13.9487L22.7671 13.7886ZM14.4442 21.1992C14.4807 21.078 14.5464 20.9676 14.6354 20.8776L20.023 15.3951C20.1836 15.2356 20.3986 15.1427 20.6248 15.1351C20.851 15.1275 21.0718 15.2057 21.2427 15.354C21.553 15.6289 21.5969 16.0709 21.3646 16.3939L21.2796 16.4959L15.9076 21.96C15.8118 22.0564 15.6942 22.1284 15.5647 22.1696L14.0007 22.6754L14.4442 21.1992Z" fill="#0E65F3"/>
</svg>
