<svg width="30" height="30" viewBox="0 0 30 30" fill="none" xmlns="http://www.w3.org/2000/svg">
<path d="M20 2.50006H10C5.86375 2.50006 2.5 5.86381 2.5 10.0001V26.2501C2.5 26.5816 2.6317 26.8995 2.86612 27.1339C3.10054 27.3684 3.41848 27.5001 3.75 27.5001H20C24.1362 27.5001 27.5 24.1363 27.5 20.0001V10.0001C27.5 5.86381 24.1362 2.50006 20 2.50006ZM25 20.0001C25 22.7576 22.7575 25.0001 20 25.0001H5V10.0001C5 7.24256 7.2425 5.00006 10 5.00006H20C22.7575 5.00006 25 7.24256 25 10.0001V20.0001Z" fill="#F9F9F9"/>
<path d="M8.75 18.7337V21.2324H11.2487L18.16 14.3299L15.6625 11.8324L8.75 18.7337ZM19.3375 13.1524L16.84 10.6524L18.7438 8.74994L21.2438 11.2487L19.3375 13.1524Z" fill="#F9F9F9"/>
</svg>
