<?xml version="1.0" encoding="UTF-8"?> <!-- Generator: Adobe Illustrator 21.0.0, SVG Export Plug-In . SVG Version: 6.00 Build 0) --> <svg xmlns="http://www.w3.org/2000/svg" xmlns:xlink="http://www.w3.org/1999/xlink" id="Слой_1" x="0px" y="0px" viewBox="0 0 105.1 33.9" style="enable-background:new 0 0 105.1 33.9;" xml:space="preserve"> <style type="text/css"> .st0{fill:#327CB6;} </style> <path class="st0" d="M33.3,18c0.1,0.9,0.9,1.6,2.2,1.6c0.7,0,1.6-0.3,2-0.7l1.2,1.2c-0.8,0.8-2.1,1.2-3.2,1.2c-2.6,0-4.1-1.6-4.1-4 c0-2.3,1.6-3.9,4-3.9c2.5,0,4.1,1.6,3.8,4.7H33.3z M37.4,16.5c-0.1-1-0.9-1.5-2-1.5c-1,0-1.8,0.5-2.1,1.5H37.4z"></path> <path class="st0" d="M45.5,21.1v-4c0-1-0.5-1.9-1.5-1.9c-1,0-1.6,0.9-1.6,1.9v4h-1.9v-7.5h1.7l0.1,0.9c0.4-0.8,1.3-1,2-1 c0.9,0,1.8,0.4,2.2,1.4c0.7-1.1,1.5-1.4,2.5-1.4c2.1,0,3.2,1.3,3.2,3.6v4.1h-1.9V17c0-1-0.4-1.8-1.4-1.8c-1,0-1.6,0.9-1.6,1.9v4 H45.5z"></path> <path class="st0" d="M61.6,17.4c0,2.2-1.5,3.9-3.9,3.9c-2.4,0-3.9-1.8-3.9-3.9c0-2.2,1.5-3.9,3.9-3.9C60.1,13.4,61.6,15.2,61.6,17.4 z M55.7,17.4c0,1.1,0.7,2.2,2,2.2c1.4,0,2-1.1,2-2.2c0-1.1-0.8-2.2-2-2.2C56.4,15.1,55.7,16.2,55.7,17.4z"></path> <path class="st0" d="M65.4,11.5v2.1h2.1v1.6h-2.1v3.3c0,0.7,0.4,1.1,1,1.1c0.3,0,0.6-0.1,0.9-0.2l0.5,1.6c-0.5,0.2-1,0.3-1.5,0.3 c-1.6,0.1-2.7-0.9-2.7-2.7v-3.3h-1.4v-1.6h1.4v-1.9L65.4,11.5z"></path> <path class="st0" d="M70.4,18c0.1,0.9,0.9,1.6,2.2,1.6c0.7,0,1.6-0.3,2-0.7l1.2,1.2c-0.8,0.8-2.1,1.2-3.2,1.2c-2.6,0-4.1-1.6-4.1-4 c0-2.3,1.6-3.9,4-3.9c2.5,0,4.1,1.6,3.8,4.7H70.4z M74.5,16.5c-0.1-1-0.9-1.5-2-1.5c-1,0-1.8,0.5-2.1,1.5H74.5z"></path> <path class="st0" d="M86.6,10.6v11.2c0,1.9-0.8,3.1-2.5,3.1c-0.5,0-1.1-0.2-1.7-0.5l0.7-1.5c0.3,0.2,0.6,0.2,0.9,0.2 c0.6,0,0.7-0.5,0.7-1.3V10.6H86.6z"></path> <path class="st0" d="M95.6,17.4c0,2.2-1.5,3.9-3.9,3.9c-2.4,0-3.9-1.8-3.9-3.9c0-2.2,1.5-3.9,3.9-3.9C94.1,13.4,95.6,15.2,95.6,17.4 z M89.7,17.4c0,1.1,0.7,2.2,2,2.2c1.4,0,2-1.1,2-2.2c0-1.1-0.8-2.2-2-2.2C90.4,15.1,89.7,16.2,89.7,17.4z"></path> <path class="st0" d="M98.8,11.4v3.2c0.4-0.8,1.7-1.2,2.5-1.2c2.2,0,3.8,1.3,3.8,3.9c0,2.5-1.7,3.9-3.9,3.9c-0.9,0-1.8-0.3-2.4-1.2 l-0.1,1h-1.7v-9.7H98.8z M98.9,17.3c0,1.4,1,2.2,2.2,2.2c1.2,0,2.1-0.9,2.1-2.2c0-1.4-0.9-2.2-2.1-2.2C99.9,15.1,98.9,16,98.9,17.3z "></path> <g> <path class="st0" d="M22.4,13.5c0-1.7-1.1-3.3-3.6-3.3h-6v6.6h6C21.3,16.8,22.4,15.2,22.4,13.5z"></path> <path class="st0" d="M29.4,17.3c0-2.6,1.5-4.7,3.7-5.5C30.9,4.9,24.5,0,17,0C7.6,0,0,7.6,0,17s7.6,17,17,17 c7.3,0,13.5-4.6,15.9-11.1C30.7,21.9,29.4,19.9,29.4,17.3z M27.3,27.3h-4.7l-6.1-6.9h-3.8v6.9H8.9V6.5c3.3,0,6.6,0,9.9,0 c4.9,0,7.5,3.3,7.5,6.9c0,2.8-1.3,5.7-5.3,6.5l6.3,7.1V27.3z"></path> </g> <circle class="st0" cx="80.5" cy="17.1" r="1.5"></circle> </svg> 