<?xml version="1.0" encoding="UTF-8"?> <svg xmlns="http://www.w3.org/2000/svg" width="87" height="87" viewBox="0 0 87 87" fill="none"> <path d="M43.4993 86.9987C19.4747 86.9987 0 67.524 0 43.4993C0 19.4747 19.4747 0 43.4993 0C67.524 0 86.9987 19.4747 86.9987 43.4993C86.9987 67.524 67.524 86.9987 43.4993 86.9987ZM43.4993 78.2988C52.7287 78.2988 61.5801 74.6325 68.1063 68.1063C74.6325 61.5801 78.2988 52.7287 78.2988 43.4993C78.2988 34.27 74.6325 25.4186 68.1063 18.8924C61.5801 12.3662 52.7287 8.69987 43.4993 8.69987C34.27 8.69987 25.4186 12.3662 18.8924 18.8924C12.3662 25.4186 8.69987 34.27 8.69987 43.4993C8.69987 52.7287 12.3662 61.5801 18.8924 68.1063C25.4186 74.6325 34.27 78.2988 43.4993 78.2988ZM39.1494 21.7497H47.8493V30.4495H39.1494V21.7497ZM39.1494 39.1494H47.8493V65.249H39.1494V39.1494Z" fill="#0363FE"></path> </svg> 