<svg width="30" height="30" viewBox="0 0 30 30" fill="none" xmlns="http://www.w3.org/2000/svg">
<path d="M12.5624 19.2749L20.3824 8.68113C20.5008 8.5198 20.6712 8.40435 20.865 8.35431C21.0587 8.30428 21.2637 8.32275 21.4454 8.4066C21.6271 8.49045 21.7742 8.63451 21.8618 8.81439C21.9494 8.99427 21.9721 9.19891 21.9262 9.39363L21.8887 9.51613L17.0512 21.7649C16.9196 22.092 16.7225 22.3888 16.4721 22.637C16.2216 22.8852 15.9231 23.0796 15.5948 23.2083C15.2666 23.337 14.9154 23.3972 14.563 23.3853C14.2106 23.3734 13.8644 23.2895 13.5456 23.1389C13.2267 22.9883 12.942 22.7742 12.709 22.5096C12.4759 22.245 12.2994 21.9356 12.1902 21.6003C12.081 21.265 12.0416 20.911 12.0742 20.5599C12.1068 20.2088 12.2108 19.8681 12.3799 19.5586L12.4662 19.4136L12.5612 19.2761L20.3824 8.68113L12.5612 19.2761L12.5624 19.2749ZM17.3124 15.9974L14.0699 20.3899L14.0199 20.4674C13.9743 20.5493 13.9453 20.6393 13.9346 20.7324C13.9239 20.8255 13.9316 20.9199 13.9574 21.01C13.9832 21.1001 14.0265 21.1842 14.0848 21.2575C14.1432 21.3309 14.2154 21.392 14.2974 21.4374L14.3812 21.4774C14.5386 21.5399 14.7131 21.5443 14.8734 21.4897C15.0338 21.4352 15.1695 21.3254 15.2562 21.1799L15.3062 21.0761L17.3124 15.9974ZM23.2624 9.26738C24.2274 10.0501 25.0781 10.964 25.7899 11.9824C26.4449 12.9186 27.0774 14.0524 27.4399 14.9799C27.4848 15.0945 27.5067 15.2169 27.5043 15.34C27.5019 15.4631 27.4752 15.5846 27.4259 15.6974C27.3766 15.8102 27.3055 15.9122 27.2168 15.9976C27.128 16.0829 27.0233 16.15 26.9087 16.1949C26.794 16.2398 26.6716 16.2616 26.5485 16.2592C26.4254 16.2568 26.304 16.2302 26.1911 16.1809C26.0783 16.1316 25.9763 16.0605 25.8909 15.9717C25.8056 15.883 25.7386 15.7783 25.6937 15.6636C25.5547 15.317 25.3969 14.9781 25.2212 14.6486L22.6587 16.1274C22.453 16.2448 22.2104 16.28 21.9798 16.2259C21.7493 16.1718 21.5477 16.0324 21.4157 15.8358C21.2836 15.6392 21.2309 15.3998 21.2681 15.1659C21.3053 14.932 21.4296 14.7209 21.6162 14.5749L21.7224 14.5036L24.2449 13.0461L23.9574 12.6536C23.5589 12.1333 23.1164 11.6482 22.6349 11.2036L23.1099 9.99863C23.1574 9.87863 23.1937 9.75613 23.2187 9.63363L23.2487 9.44988L23.2612 9.26738H23.2624ZM19.9749 7.31613C19.7858 7.42611 19.6147 7.56437 19.4674 7.72613L19.3249 7.90113L18.6499 8.81738C17.7728 8.51282 16.862 8.31555 15.9374 8.22988V11.5699C15.9373 11.8074 15.8471 12.0361 15.6849 12.2096C15.5228 12.3832 15.3008 12.4887 15.0638 12.5049C14.8268 12.5211 14.5925 12.4467 14.4083 12.2968C14.224 12.1469 14.1035 11.9327 14.0712 11.6974L14.0624 11.5699V8.20738C11.9991 8.35412 10.0147 9.06023 8.32241 10.2499C7.30241 10.9649 6.41241 11.9024 5.67366 13.0061L8.27616 14.5086C8.48171 14.6275 8.6345 14.8199 8.70368 15.0471C8.77285 15.2742 8.75326 15.5192 8.64885 15.7324C8.54444 15.9457 8.363 16.1114 8.14116 16.1961C7.91932 16.2807 7.67361 16.2781 7.45366 16.1886L7.33866 16.1324L4.74616 14.6361C4.58616 14.9686 4.43866 15.3111 4.30116 15.6624C4.20805 15.8897 4.02941 16.0715 3.80368 16.1684C3.57796 16.2654 3.32318 16.2699 3.09416 16.181C2.86515 16.092 2.6802 15.9167 2.57912 15.6928C2.47804 15.4689 2.4689 15.2142 2.55366 14.9836C3.56241 12.3899 5.15366 10.1799 7.24616 8.71363C9.07903 7.42879 11.2065 6.62722 13.4315 6.38315C15.6565 6.13909 17.9071 6.46041 19.9749 7.31738V7.31613Z" fill="#F9F9F9"/>
</svg>
