<svg width="63" height="63" viewBox="0 0 63 63" fill="none" xmlns="http://www.w3.org/2000/svg">
<g clip-path="url(#clip0_348_5347)">
<path d="M31.3567 12.1091C27.6118 12.1091 24.576 15.1449 24.576 18.8898C24.576 22.6347 27.6118 25.6705 31.3567 25.6705C35.1016 25.6705 38.1374 22.6347 38.1374 18.8898C38.1374 15.1449 35.1016 12.1091 31.3567 12.1091ZM20.0555 18.8898C20.0555 12.6483 25.1153 7.58862 31.3567 7.58862C37.5982 7.58862 42.6579 12.6483 42.6579 18.8898C42.6579 25.1313 37.5982 30.191 31.3567 30.191C25.1153 30.191 20.0555 25.1313 20.0555 18.8898ZM13.2748 46.0126C13.2748 39.7712 18.3346 34.7115 24.576 34.7115H38.1374C44.3789 34.7115 49.4386 39.7712 49.4386 46.0126V52.7933C49.4386 54.0416 48.4267 55.0536 47.1784 55.0536C45.9301 55.0536 44.9181 54.0416 44.9181 52.7933V46.0126C44.9181 42.2677 41.8823 39.2319 38.1374 39.2319H24.576C20.8311 39.2319 17.7953 42.2677 17.7953 46.0126V52.7933C17.7953 54.0416 16.7834 55.0536 15.5351 55.0536C14.2868 55.0536 13.2748 54.0416 13.2748 52.7933V46.0126ZM46.2134 9.65797C46.6818 8.50088 47.9995 7.94257 49.1566 8.41095C53.2941 10.0858 56.2193 14.1435 56.2193 18.8898C56.2193 23.6362 53.2941 27.6939 49.1566 29.3687C47.9995 29.837 46.6818 29.2787 46.2134 28.1216C45.7451 26.9646 46.3034 25.6468 47.4605 25.1785C49.9496 24.1709 51.6989 21.7319 51.6989 18.8898C51.6989 16.0477 49.9496 13.6087 47.4605 12.6011C46.3034 12.1328 45.7451 10.8151 46.2134 9.65797ZM52.2491 36.708C52.6224 35.5168 53.8907 34.8538 55.0818 35.2271C59.6682 36.6646 63 40.9465 63 46.0126V52.7933C63 54.0416 61.9881 55.0536 60.7398 55.0536C59.4915 55.0536 58.4795 54.0416 58.4795 52.7933V46.0126C58.4795 42.9784 56.485 40.4042 53.7299 39.5407C52.5388 39.1674 51.8758 37.8991 52.2491 36.708Z" fill="white"/>
<path d="M13.8434 8.41124C15.0005 7.94286 16.3182 8.50117 16.7866 9.65826C17.255 10.8154 16.6967 12.1331 15.5396 12.6014C13.0504 13.609 11.3011 16.048 11.3011 18.8901C11.3011 21.7322 13.0504 24.1712 15.5396 25.1788C16.6967 25.6471 17.255 26.9648 16.7866 28.1219C16.3182 29.279 15.0005 29.8373 13.8434 29.369C9.70593 27.6941 6.78066 23.6364 6.78066 18.8901C6.78066 14.1437 9.70593 10.086 13.8434 8.41124Z" fill="white"/>
<path d="M7.91818 35.2274C9.10935 34.8541 10.3776 35.5171 10.7509 36.7083C11.1243 37.8994 10.4613 39.1677 9.2701 39.541C6.51504 40.4045 4.52048 42.9787 4.52048 46.0129V52.7936C4.52048 54.0419 3.50853 55.0539 2.26024 55.0539C1.01195 55.0539 0 54.0419 0 52.7936V46.0129C0 40.9468 3.33182 36.6648 7.91818 35.2274Z" fill="white"/>
<path d="M31.3567 12.1091C27.6118 12.1091 24.576 15.1449 24.576 18.8898C24.576 22.6347 27.6118 25.6705 31.3567 25.6705C35.1016 25.6705 38.1374 22.6347 38.1374 18.8898C38.1374 15.1449 35.1016 12.1091 31.3567 12.1091ZM20.0555 18.8898C20.0555 12.6483 25.1153 7.58862 31.3567 7.58862C37.5982 7.58862 42.6579 12.6483 42.6579 18.8898C42.6579 25.1313 37.5982 30.191 31.3567 30.191C25.1153 30.191 20.0555 25.1313 20.0555 18.8898ZM13.2748 46.0126C13.2748 39.7712 18.3346 34.7115 24.576 34.7115H38.1374C44.3789 34.7115 49.4386 39.7712 49.4386 46.0126V52.7933C49.4386 54.0416 48.4267 55.0536 47.1784 55.0536C45.9301 55.0536 44.9181 54.0416 44.9181 52.7933V46.0126C44.9181 42.2677 41.8823 39.2319 38.1374 39.2319H24.576C20.8311 39.2319 17.7953 42.2677 17.7953 46.0126V52.7933C17.7953 54.0416 16.7834 55.0536 15.5351 55.0536C14.2868 55.0536 13.2748 54.0416 13.2748 52.7933V46.0126ZM46.2134 9.65797C46.6818 8.50088 47.9995 7.94257 49.1566 8.41095C53.2941 10.0858 56.2193 14.1435 56.2193 18.8898C56.2193 23.6362 53.2941 27.6939 49.1566 29.3687C47.9995 29.837 46.6818 29.2787 46.2134 28.1216C45.7451 26.9646 46.3034 25.6468 47.4605 25.1785C49.9496 24.1709 51.6989 21.7319 51.6989 18.8898C51.6989 16.0477 49.9496 13.6087 47.4605 12.6011C46.3034 12.1328 45.7451 10.8151 46.2134 9.65797ZM52.2491 36.708C52.6224 35.5168 53.8907 34.8538 55.0818 35.2271C59.6682 36.6646 63 40.9465 63 46.0126V52.7933C63 54.0416 61.9881 55.0536 60.7398 55.0536C59.4915 55.0536 58.4795 54.0416 58.4795 52.7933V46.0126C58.4795 42.9784 56.485 40.4042 53.7299 39.5407C52.5388 39.1674 51.8758 37.8991 52.2491 36.708Z" stroke="white" stroke-width="0.4" stroke-linecap="round" stroke-linejoin="round"/>
<path d="M13.8434 8.41124C15.0005 7.94286 16.3182 8.50117 16.7866 9.65826C17.255 10.8154 16.6967 12.1331 15.5396 12.6014C13.0504 13.609 11.3011 16.048 11.3011 18.8901C11.3011 21.7322 13.0504 24.1712 15.5396 25.1788C16.6967 25.6471 17.255 26.9648 16.7866 28.1219C16.3182 29.279 15.0005 29.8373 13.8434 29.369C9.70593 27.6941 6.78066 23.6364 6.78066 18.8901C6.78066 14.1437 9.70593 10.086 13.8434 8.41124Z" stroke="white" stroke-width="0.4" stroke-linecap="round" stroke-linejoin="round"/>
<path d="M7.91818 35.2274C9.10935 34.8541 10.3776 35.5171 10.7509 36.7083C11.1243 37.8994 10.4613 39.1677 9.2701 39.541C6.51504 40.4045 4.52048 42.9787 4.52048 46.0129V52.7936C4.52048 54.0419 3.50853 55.0539 2.26024 55.0539C1.01195 55.0539 0 54.0419 0 52.7936V46.0129C0 40.9468 3.33182 36.6648 7.91818 35.2274Z" stroke="white" stroke-width="0.4" stroke-linecap="round" stroke-linejoin="round"/>
</g>
<defs>
<clipPath id="clip0_348_5347">
<rect width="63" height="63" fill="white"/>
</clipPath>
</defs>
</svg>
