<svg width="54" height="54" viewBox="0 0 54 54" fill="none" xmlns="http://www.w3.org/2000/svg">
<path d="M52.4174 37.1931C52.274 36.7746 52.0264 36.3995 51.6981 36.103C51.3697 35.8066 50.9713 35.5986 50.5404 35.4986L34.899 31.9272C34.4744 31.8309 34.0325 31.8425 33.6136 31.9609C33.1947 32.0793 32.812 32.3007 32.5007 32.6049C32.1357 32.9438 32.1096 32.9699 30.4152 36.2025C24.7926 33.6116 20.2873 29.0879 17.7196 23.4547C21.0303 21.7863 21.0564 21.7863 21.3953 21.3953C21.6995 21.0839 21.921 20.7013 22.0394 20.2824C22.1578 19.8634 22.1693 19.4215 22.0731 18.9969L18.5016 3.53805C18.4016 3.10712 18.1936 2.70872 17.8972 2.38036C17.6008 2.05199 17.2256 1.80447 16.8072 1.66108C16.1984 1.44364 15.5697 1.28647 14.9302 1.19184C14.2713 1.03907 13.5989 0.951745 12.9229 0.931152C9.74247 0.931152 6.69233 2.19456 4.44345 4.44345C2.19456 6.69233 0.931152 9.74247 0.931152 12.9229C0.944948 23.5661 5.17905 33.7694 12.7049 41.2953C20.2308 48.8212 30.4342 53.0553 41.0774 53.0691C42.6521 53.0691 44.2115 52.7589 45.6664 52.1563C47.1213 51.5536 48.4432 50.6703 49.5568 49.5568C50.6703 48.4433 51.5536 47.1213 52.1563 45.6664C52.7589 44.2115 53.0691 42.6521 53.0691 41.0774C53.0699 40.4138 53.0176 39.7513 52.9127 39.0961C52.8031 38.4486 52.6374 37.8119 52.4174 37.1931ZM41.0774 47.8553C31.8148 47.8484 22.9336 44.1658 16.384 37.6162C9.83444 31.0666 6.15185 22.1854 6.14494 12.9229C6.15181 11.1274 6.86812 9.40737 8.13774 8.13774C9.40736 6.86812 11.1274 6.15181 12.9229 6.14495H13.7832L16.5725 18.2409L15.1648 18.9709C12.9229 20.144 11.1502 21.0825 12.0887 23.1158C13.6169 27.4422 16.0897 31.3738 19.3273 34.625C22.565 37.8762 26.4862 40.3653 30.8062 41.9116C32.996 42.7979 33.8563 41.1556 35.0294 38.8876L35.7854 37.4538L47.8553 40.2171V41.0774C47.8484 42.8729 47.1321 44.5929 45.8625 45.8625C44.5929 47.1321 42.8729 47.8484 41.0774 47.8553Z" fill="white"/>
</svg>
