<svg width="68" height="68" viewBox="0 0 68 68" fill="none" xmlns="http://www.w3.org/2000/svg">
<path d="M27.5544 45.3046L48.2339 17.2901C48.5469 16.8634 48.9977 16.5581 49.51 16.4258C50.0223 16.2935 50.5646 16.3423 51.045 16.5641C51.5254 16.7858 51.9144 17.1668 52.1461 17.6424C52.3778 18.1181 52.4379 18.6593 52.3163 19.1742L52.2171 19.4982L39.4246 51.8893C39.0767 52.7544 38.5555 53.5392 37.8933 54.1956C37.231 54.852 36.4416 55.3661 35.5735 55.7064C34.7053 56.0467 33.7768 56.2059 32.8449 56.1744C31.913 56.1428 30.9974 55.9211 30.1542 55.5229C29.3111 55.1247 28.5583 54.5584 27.9419 53.8587C27.3256 53.159 26.8588 52.3407 26.5701 51.4541C26.2814 50.5674 26.177 49.6312 26.2633 48.7027C26.3496 47.7743 26.6247 46.8733 27.0718 46.055L27.2998 45.6716L27.5511 45.3079L48.2339 17.2901L27.5511 45.3079L27.5544 45.3046ZM40.1155 36.6375L31.5409 48.2532L31.4087 48.4581C31.2881 48.6747 31.2114 48.9129 31.1831 49.1591C31.1547 49.4053 31.1752 49.6547 31.2434 49.8929C31.3115 50.1312 31.426 50.3537 31.5803 50.5477C31.7346 50.7416 31.9256 50.9032 32.1425 51.0232L32.364 51.129C32.7802 51.2943 33.2417 51.3059 33.6658 51.1617C34.0898 51.0175 34.4486 50.727 34.6778 50.3423L34.8101 50.0679L40.1155 36.6375ZM55.8499 18.8404C58.4017 20.9103 60.6514 23.3269 62.5338 26.02C64.2659 28.4959 65.9385 31.494 66.8971 33.9467C67.0158 34.25 67.0737 34.5736 67.0673 34.8992C67.061 35.2247 66.9905 35.5458 66.8601 35.8442C66.7296 36.1426 66.5417 36.4123 66.307 36.638C66.0723 36.8637 65.7954 37.041 65.4922 37.1597C65.189 37.2785 64.8654 37.3363 64.5398 37.33C64.2143 37.3236 63.8931 37.2532 63.5948 37.1227C63.2964 36.9923 63.0267 36.8044 62.801 36.5697C62.5752 36.335 62.398 36.0581 62.2792 35.7549C61.9117 34.8382 61.4946 33.9422 61.0297 33.0708L54.2533 36.9812C53.7094 37.2917 53.068 37.3848 52.4583 37.2417C51.8485 37.0987 51.3155 36.7301 50.9663 36.2101C50.6171 35.6902 50.4777 35.0573 50.5761 34.4387C50.6744 33.8202 51.0033 33.2618 51.4965 32.8757L51.7775 32.6873L58.4481 28.8331L57.6878 27.7951C56.634 26.4192 55.4639 25.1363 54.1905 23.9607L55.4467 20.7741C55.5723 20.4568 55.6681 20.1328 55.7342 19.8089L55.8136 19.323L55.8466 18.8404H55.8499ZM47.1563 13.6804C46.6563 13.9712 46.2037 14.3368 45.8143 14.7646L45.4374 15.2274L43.6524 17.6504C41.3329 16.845 38.9243 16.3233 36.4794 16.0967V24.9292C36.4792 25.5573 36.2406 26.162 35.8117 26.6209C35.3829 27.0799 34.7959 27.359 34.1692 27.4018C33.5425 27.4446 32.923 27.248 32.4357 26.8516C31.9484 26.4552 31.6298 25.8886 31.5442 25.2664L31.521 24.9292V16.0372C26.0646 16.4253 20.817 18.2926 16.3419 21.4385C13.6446 23.3293 11.291 25.8085 9.33746 28.7273L16.2196 32.7006C16.7632 33.0149 17.1673 33.5238 17.3502 34.1245C17.5331 34.7252 17.4813 35.3729 17.2052 35.9368C16.9291 36.5008 16.4493 36.939 15.8626 37.1629C15.276 37.3868 14.6262 37.3798 14.0446 37.1432L13.7405 36.9945L6.88474 33.0377C6.46163 33.917 6.07158 34.8227 5.70796 35.7516C5.46174 36.3528 4.98935 36.8334 4.39242 37.0898C3.79549 37.3463 3.12174 37.3582 2.51613 37.123C1.91052 36.8878 1.42144 36.4242 1.15413 35.832C0.886824 35.2399 0.862645 34.5665 1.0868 33.9567C3.75438 27.0976 7.96235 21.2534 13.4959 17.376C18.3428 13.9783 23.9687 11.8586 29.8526 11.2132C35.7365 10.5678 41.6881 11.4175 47.1563 13.6837V13.6804Z" fill="#F9F9F9"/>
</svg>
