<svg width="30" height="30" viewBox="0 0 30 30" fill="none" xmlns="http://www.w3.org/2000/svg">
<path d="M15.1207 1.89551C11.6139 1.89551 8.25078 3.28856 5.77114 5.76821C3.29149 8.24786 1.89844 11.611 1.89844 15.1177C1.89844 15.5427 1.89844 15.9583 1.96455 16.3738C2.20792 18.9241 3.18691 21.3487 4.7825 23.353C6.3781 25.3572 8.52157 26.8548 10.9524 27.6636C13.3832 28.4725 15.9966 28.5577 18.4749 27.9091C20.9533 27.2604 23.1898 25.9057 24.9126 24.0097C26.6355 22.1137 27.7704 19.7581 28.1795 17.2291C28.5886 14.7002 28.2542 12.1068 27.217 9.76437C26.1798 7.42191 24.4844 5.4312 22.3369 4.03426C20.1895 2.63731 17.6825 1.89429 15.1207 1.89551ZM15.1207 3.7844C18.1069 3.78699 20.9715 4.96812 23.0918 7.07106V8.01551C19.3589 6.73089 15.3012 6.74754 11.579 8.06273C11.2816 7.77297 10.9084 7.57324 10.5023 7.48662H10.2662C10.1529 7.08995 10.049 6.69329 9.96399 6.28718C9.87899 5.88106 9.83177 5.52218 9.78455 5.13495C11.4241 4.25017 13.2576 3.78611 15.1207 3.7844ZM12.2873 9.32829C15.7172 8.17971 19.4345 8.22298 22.8368 9.45106C22.3766 11.8505 21.3717 14.1123 19.8995 16.0622C19.4878 15.8878 19.0319 15.8459 18.5953 15.9424C18.1586 16.0389 17.7629 16.2689 17.4629 16.6005C17.1323 16.4116 16.8018 16.2227 16.5184 16.0055C14.6119 14.7334 13.0197 13.0443 11.8623 11.0661C12.0494 10.8341 12.1856 10.5654 12.262 10.2774C12.3385 9.98944 12.3536 9.68858 12.3062 9.3944L12.2873 9.32829ZM8.50955 5.92829C8.50955 6.12662 8.56621 6.3344 8.60399 6.53273C8.68899 6.94829 8.80233 7.3544 8.91566 7.76051C8.554 7.97467 8.26292 8.28999 8.07832 8.66759C7.89371 9.04519 7.82365 9.46857 7.87677 9.88551C6.38597 10.859 5.05436 12.0568 3.92899 13.4366C4.15481 11.9423 4.67721 10.5082 5.46548 9.21876C6.25374 7.92931 7.29194 6.81055 8.51899 5.92829H8.50955ZM8.50955 20.7655C8.14086 20.8893 7.81137 21.1081 7.55433 21.4C7.2973 21.6918 7.12184 22.0464 7.04566 22.4277H6.44122C4.916 20.6086 4.0038 18.3545 3.83455 15.9866L3.93844 15.8072C5.12109 13.9734 6.66719 12.4016 8.48121 11.1888C8.75319 11.4729 9.09689 11.6781 9.47594 11.7829C9.855 11.8876 10.2553 11.8879 10.6345 11.7838C11.8978 13.9186 13.6246 15.7422 15.6873 17.12C16.0745 17.375 16.4712 17.6111 16.8679 17.8377C16.8361 18.199 16.8946 18.5624 17.0379 18.8955C15.3095 20.268 13.3159 21.268 11.1823 21.8327C10.9349 21.3705 10.5312 21.0112 10.0433 20.8192C9.55541 20.6271 9.01513 20.6148 8.51899 20.7844L8.50955 20.7655ZM15.1207 26.4322C13.1999 26.4327 11.3109 25.9418 9.63344 25.0061L9.89788 24.9494C10.2737 24.8261 10.6095 24.6042 10.8704 24.3068C11.1312 24.0094 11.3074 23.6475 11.3807 23.2588C13.7956 22.643 16.0501 21.5157 17.9918 19.9533C18.453 20.2228 18.9976 20.3121 19.5208 20.204C20.0439 20.0959 20.5085 19.798 20.8251 19.3677C22.1576 19.7141 23.5283 19.8918 24.9051 19.8966H25.4057C24.4945 21.8559 23.0422 23.514 21.22 24.6753C19.3977 25.8365 17.2815 26.4527 15.1207 26.4511V26.4322ZM21.269 18.0266C21.2681 17.6308 21.1604 17.2425 20.9573 16.9027C22.5291 14.8496 23.6229 12.4717 24.159 9.94218C24.6312 10.1625 25.0971 10.4081 25.5568 10.6788C26.5955 13.1334 26.736 15.8755 25.9534 18.4233C24.3854 18.5445 22.8081 18.4203 21.2784 18.055L21.269 18.0266Z" fill="white"/>
</svg>
